<svg
  xmlns="http://www.w3.org/2000/svg"
  viewBox="118 90 177 150"
  preserveAspectRatio="xMidYMid meet"
  role="img"
  aria-label="WadeMeHome logo"
>
  <path
    d="M198.212 92.680 C 197.337 93.376,189.998 98.939,181.904 105.043 C 173.810 111.147,167.188 116.311,167.188 116.518 C 167.188 117.048,171.140 123.438,171.469 123.438 C 171.617 123.438,173.030 122.471,174.609 121.289 C 176.189 120.107,177.543 119.141,177.618 119.141 C 177.829 119.141,176.735 121.211,173.533 126.870 L 170.596 132.061 167.622 126.977 C 165.987 124.180,164.297 121.282,163.867 120.535 L 163.086 119.177 158.996 122.250 C 156.746 123.940,154.842 125.513,154.765 125.745 C 154.648 126.096,168.202 150.646,169.730 152.851 C 170.158 153.468,171.019 152.130,176.767 141.914 C 180.369 135.512,184.761 127.725,186.526 124.609 C 193.226 112.790,198.852 102.719,199.285 101.768 C 199.931 100.350,199.983 100.398,202.305 104.590 C 203.466 106.685,207.879 114.551,212.114 122.070 C 216.348 129.590,221.884 139.434,224.415 143.945 C 226.947 148.457,229.231 152.459,229.492 152.839 C 229.903 153.437,230.946 151.795,237.313 140.534 C 241.353 133.387,244.906 127.157,245.207 126.690 C 245.732 125.874,238.518 119.727,237.035 119.727 C 236.814 119.727,235.114 122.394,233.258 125.655 C 231.402 128.916,229.769 131.695,229.631 131.832 C 229.492 131.968,228.194 129.916,226.745 127.270 C 225.297 124.625,223.656 121.673,223.099 120.710 L 222.085 118.959 223.445 119.908 C 224.193 120.430,225.577 121.438,226.521 122.147 C 227.465 122.857,228.372 123.438,228.537 123.438 C 228.916 123.438,232.813 117.154,232.813 116.544 C 232.813 116.296,227.231 111.885,220.410 106.742 C 213.589 101.599,206.250 96.046,204.102 94.402 C 199.537 90.909,200.197 91.102,198.212 92.680 M199.497 120.763 C 198.637 122.141,193.594 131.012,184.761 146.680 C 175.421 163.248,167.983 176.252,167.619 176.652 C 167.290 177.014,167.518 177.407,151.173 148.340 L 137.391 123.828 130.609 123.828 C 126.880 123.828,123.828 123.905,123.828 123.998 C 123.828 124.163,129.554 134.303,155.100 179.385 C 161.641 190.928,167.143 200.326,167.327 200.270 C 167.510 200.214,168.840 198.065,170.281 195.494 C 176.941 183.612,186.145 167.298,191.208 158.398 C 194.264 153.027,197.449 147.361,198.285 145.807 C 200.160 142.322,199.863 142.264,202.241 146.582 C 204.280 150.285,213.148 166.006,225.595 187.987 C 229.457 194.808,232.705 200.384,232.813 200.379 C 232.920 200.374,236.861 193.563,241.571 185.244 C 252.588 165.785,270.445 134.273,273.668 128.605 C 275.045 126.184,276.172 124.118,276.172 124.015 C 276.172 123.912,273.129 123.828,269.410 123.828 L 262.648 123.828 255.767 136.035 C 251.982 142.749,245.519 154.219,241.404 161.523 C 232.226 177.817,232.870 176.793,232.225 176.119 C 231.776 175.650,219.287 153.724,205.666 129.492 C 199.746 118.961,200.210 119.617,199.497 120.763 M118.555 153.391 C 112.539 158.010,107.090 162.205,106.445 162.712 L 105.273 163.635 112.509 163.654 L 119.744 163.672 121.282 162.402 C 122.128 161.704,124.497 159.854,126.547 158.290 L 130.273 155.448 130.520 156.532 C 130.656 157.129,130.788 176.118,130.813 198.730 L 130.859 239.844 200.000 239.844 L 269.141 239.844 269.180 198.926 C 269.202 176.421,269.189 157.437,269.150 156.738 C 269.049 154.883,269.423 155.059,275.198 159.579 L 280.448 163.690 287.586 163.583 L 294.723 163.477 284.959 156.025 C 271.976 146.117,270.888 145.313,270.469 145.313 C 270.272 145.313,267.958 149.182,265.328 153.911 L 260.547 162.510 260.547 196.685 L 260.547 230.859 200.000 230.859 L 139.453 230.859 139.453 196.627 L 139.453 162.395 134.740 153.952 C 132.147 149.308,129.906 145.392,129.759 145.251 C 129.612 145.109,124.570 148.772,118.555 153.391 M195.935 184.770 C 192.526 186.100,189.856 189.738,189.848 193.066 L 189.844 194.531 194.347 194.531 L 198.851 194.531 198.742 189.387 C 198.620 183.655,198.654 183.710,195.935 184.770 M201.563 189.250 L 201.563 194.531 205.859 194.531 L 210.156 194.531 210.156 192.956 C 210.156 189.060,206.870 185.245,202.637 184.228 L 201.563 183.969 201.563 189.250 M189.844 202.148 L 189.844 207.031 194.336 207.031 L 198.828 207.031 198.828 202.148 L 198.828 197.266 194.336 197.266 L 189.844 197.266 189.844 202.148 M201.563 202.148 L 201.563 207.031 206.111 207.031 L 210.660 207.031 210.411 204.395 C 210.274 202.944,210.161 200.747,210.159 199.512 L 210.156 197.266 205.859 197.266 L 201.563 197.266 201.563 202.148"
    fill="#000"
    fill-rule="evenodd"
  />
</svg>